<svg width="277" height="393" viewBox="0 0 277 393" fill="none" xmlns="http://www.w3.org/2000/svg">
<path d="M254.133 115.832C234.385 99.1118 214.29 87.477 193.848 80.927C192.635 97.1296 192.029 117.555 192.029 142.204C192.029 166.853 194.714 195.293 200.084 227.526L117.972 263.982C131.831 278.289 150.28 289.062 173.32 296.301C185.966 300.266 199.565 302.248 214.116 302.248C228.841 302.248 243.912 300.955 259.33 298.37L214.116 393C163.705 376.625 123.862 360.767 94.5854 345.426C65.3089 329.913 43.3949 311.728 28.8433 290.872C14.465 270.015 5.80331 244.849 2.85835 215.374C0.952783 196.931 0 178.057 0 158.751C0 139.274 0.346467 121.261 1.0394 104.714L214.636 0L277 44.9882L254.133 115.832ZM121.09 83.5125C92.5066 97.1296 78.2148 122.123 78.2148 158.493C78.2148 191.415 86.3568 220.287 102.641 245.108C113.728 237.868 120.57 223.476 123.169 201.93C124.208 193.484 124.728 180.384 124.728 162.63C124.728 144.703 123.515 118.331 121.09 83.5125Z" fill="#9684A1"/>
</svg>
